<svg width="26" height="25" viewBox="0 0 26 25" fill="none" xmlns="http://www.w3.org/2000/svg">
<path d="M14.2552 0.780569L17.1877 6.7225C17.3916 7.13576 17.7859 7.42212 18.242 7.48829L24.7995 8.44119C25.9481 8.60823 26.4064 10.0194 25.5756 10.8291L20.8306 15.4542C20.5008 15.7759 20.3501 16.2396 20.4282 16.6935L21.5481 23.2244C21.7444 24.3682 20.5437 25.2403 19.5165 24.7007L13.6516 21.6174C13.2437 21.4032 12.7562 21.4032 12.3483 21.6174L6.4834 24.7007C5.4562 25.2409 4.25545 24.3682 4.45178 23.2244L5.57172 16.6935C5.64982 16.2396 5.49904 15.7759 5.1693 15.4542L0.424325 10.8291C-0.406547 10.0189 0.0517346 8.60769 1.20042 8.44119L7.75791 7.48829C8.21402 7.42212 8.60831 7.13576 8.81223 6.7225L11.7447 0.780569C12.2577 -0.26019 13.7416 -0.26019 14.2552 0.780569Z" fill="#ED8A19"/>
</svg>
