<?xml version="1.0"?>
<svg xmlns="http://www.w3.org/2000/svg" xmlns:xlink="http://www.w3.org/1999/xlink" width="500" zoomAndPan="magnify" viewBox="0 0 375 374.999991" height="500" preserveAspectRatio="xMidYMid meet" version="1.0" style="background-color:transparent;">
  <defs>
    <clipPath id="5fb867ef8b">
      <path d="M 109.421875 110.699219 L 264 110.699219 L 264 264.449219 L 109.421875 264.449219 Z M 109.421875 110.699219 " clip-rule="nonzero"/>
    </clipPath>
    <clipPath id="1d003c02de">
      <path d="M 192 184 L 265.421875 184 L 265.421875 256 L 192 256 Z M 192 184 " clip-rule="nonzero"/>
    </clipPath>
    <clipPath id="f5ddc470ae">
      <path d="M 164 110.699219 L 265.421875 110.699219 L 265.421875 195 L 164 195 Z M 164 110.699219 " clip-rule="nonzero"/>
    </clipPath>
  </defs>
  <rect x="-37.5" width="450" fill="none" y="-37.499999" height="449.999989" fill-opacity="1"/>
  <rect x="-37.5" width="450" fill="none" y="-37.499999" height="449.999989" fill-opacity="1"/>
  <path fill="#000000" d="M 186.222656 111.414062 C 144.214844 111.414062 110.152344 145.46875 110.152344 187.488281 C 110.152344 229.507812 144.214844 263.574219 186.222656 263.574219 C 228.246094 263.574219 262.308594 229.507812 262.308594 187.488281 C 262.308594 145.46875 228.246094 111.414062 186.222656 111.414062 Z M 186.222656 195.019531 C 182.097656 195.019531 178.753906 191.664062 178.753906 187.550781 C 178.753906 183.421875 182.097656 180.070312 186.222656 180.070312 C 190.351562 180.070312 193.691406 183.421875 193.691406 187.550781 C 193.691406 191.664062 190.351562 195.019531 186.222656 195.019531 Z M 186.222656 195.019531 " fill-opacity="1" fill-rule="nonzero"/>
  <g clip-path="url(#5fb867ef8b)">
    <path fill="#000000" d="M 186.222656 264.289062 C 143.882812 264.289062 109.4375 229.835938 109.4375 187.488281 C 109.4375 145.148438 143.882812 110.699219 186.222656 110.699219 C 228.570312 110.699219 263.023438 145.148438 263.023438 187.488281 C 263.023438 229.835938 228.570312 264.289062 186.222656 264.289062 Z M 186.222656 112.132812 C 144.671875 112.132812 110.867188 145.9375 110.867188 187.488281 C 110.867188 229.046875 144.671875 262.859375 186.222656 262.859375 C 227.78125 262.859375 261.59375 229.046875 261.59375 187.488281 C 261.59375 145.9375 227.78125 112.132812 186.222656 112.132812 Z M 186.222656 195.734375 C 181.710938 195.734375 178.039062 192.0625 178.039062 187.550781 C 178.039062 183.03125 181.710938 179.355469 186.222656 179.355469 C 190.738281 179.355469 194.40625 183.03125 194.40625 187.550781 C 194.40625 192.0625 190.734375 195.734375 186.222656 195.734375 Z M 186.222656 180.785156 C 182.5 180.785156 179.46875 183.820312 179.46875 187.550781 C 179.46875 191.273438 182.5 194.304688 186.222656 194.304688 C 189.949219 194.304688 192.976562 191.273438 192.976562 187.550781 C 192.976562 183.820312 189.949219 180.785156 186.222656 180.785156 Z M 186.222656 180.785156 " fill-opacity="1" fill-rule="nonzero"/>
  </g>
  <path fill="#a8a9ac" d="M 264.65625 188.695312 C 264.65625 163.851562 251.925781 140.605469 233.316406 126.917969 C 233.300781 126.902344 233.402344 126.902344 233.390625 126.890625 C 224.035156 120.023438 213.175781 115.246094 201.277344 113.269531 C 201.261719 113.257812 201.261719 113.257812 201.25 113.257812 C 197.789062 112.671875 194.296875 112.328125 190.707031 112.242188 C 190.078125 112.226562 189.398438 112.214844 188.78125 112.214844 C 186.292969 112.214844 183.792969 112.324219 181.363281 112.570312 C 179.902344 112.714844 178.433594 112.886719 177 113.128906 C 174.453125 113.527344 171.9375 114.042969 169.476562 114.699219 C 167.433594 115.230469 165.417969 115.859375 163.441406 116.558594 C 161.011719 117.433594 158.621094 118.421875 156.320312 119.519531 C 132.933594 130.679688 116.210938 153.566406 113.765625 180.570312 C 113.550781 182.847656 113.449219 185.164062 113.449219 187.480469 C 113.449219 195.519531 114.710938 203.257812 117.039062 210.523438 C 120.53125 221.410156 126.4375 231.222656 134.132812 239.316406 C 147.664062 253.578125 166.71875 262.535156 187.886719 262.761719 C 188.160156 262.777344 188.445312 262.777344 188.71875 262.777344 C 191.207031 262.777344 193.667969 262.648438 196.085938 262.417969 C 198.128906 262.21875 200.132812 261.945312 202.121094 261.589844 C 204.007812 261.246094 205.882812 260.832031 207.726562 260.34375 C 210.417969 259.65625 213.046875 258.8125 215.609375 257.839844 C 218.140625 256.871094 220.6875 255.765625 223.089844 254.523438 C 223.117188 254.523438 222.769531 254.507812 222.800781 254.496094 C 246.5 242.308594 262.128906 217.917969 263.375 189.625 L 263.375 189.496094 C 263.375 188.824219 264.65625 189.382812 264.65625 188.695312 Z M 181.039062 184.5625 C 181.894531 182.289062 183.753906 180.484375 186.074219 179.714844 C 186.214844 179.65625 186.359375 179.613281 186.5 179.585938 C 186.945312 179.457031 187.417969 179.355469 187.902344 179.3125 C 188.160156 179.285156 188.445312 179.269531 188.71875 179.269531 C 191.078125 179.269531 193.210938 180.269531 194.710938 181.859375 C 195.671875 182.859375 196.355469 184.105469 196.699219 185.492188 C 196.871094 186.136719 196.945312 186.792969 196.945312 187.480469 C 196.945312 190.328125 195.5 192.832031 193.308594 194.316406 C 192.523438 194.859375 191.636719 195.246094 190.675781 195.476562 C 190.304688 195.574219 189.917969 195.632812 189.519531 195.675781 C 189.261719 195.707031 188.988281 195.707031 188.71875 195.707031 C 185.128906 195.707031 182.082031 193.417969 180.964844 190.210938 C 180.652344 189.367188 180.492188 188.4375 180.492188 187.480469 C 180.492188 186.449219 180.679688 185.464844 181.039062 184.5625 Z M 181.039062 184.5625 " fill-opacity="1" fill-rule="nonzero"/>
  <path stroke-linecap="butt" transform="matrix(0.312254, 0, 0, 0.312254, 109.435668, 110.700571)" fill="none" stroke-linejoin="miter" d="M 229.311525 236.544533 C 232.051183 229.263797 238.005875 223.484243 245.436729 221.019802 C 245.887084 220.832154 246.349949 220.694545 246.800303 220.606976 C 248.226427 220.194151 249.74012 219.868895 251.291342 219.731286 C 252.116992 219.643717 253.030212 219.593678 253.905902 219.593678 C 261.461855 219.593678 268.292236 222.796201 273.09602 227.887712 C 276.173445 231.090235 278.36267 235.080879 279.463537 239.521878 C 280.013971 241.586005 280.251658 243.68766 280.251658 245.889395 C 280.251658 255.00908 275.623011 263.027897 268.604982 267.781643 C 266.090501 269.520513 263.250764 270.758988 260.173339 271.49707 C 258.984903 271.809816 257.746427 271.997464 256.470422 272.135072 C 255.644772 272.235151 254.769082 272.235151 253.905902 272.235151 C 242.409344 272.235151 232.651657 264.904376 229.073838 254.633784 C 228.073049 251.931655 227.560145 248.95431 227.560145 245.889395 C 227.560145 242.586793 228.160618 239.434309 229.311525 236.544533 Z M 229.311525 236.544533 " stroke="#000000" stroke-width="1" stroke-opacity="1" stroke-miterlimit="10"/>
  <path fill="none" d="M 179.710938 208.347656 C 173.484375 207.203125 170.820312 204.242188 170.890625 198.199219 C 170.859375 200.550781 155.019531 200.863281 153.273438 200.980469 C 144.597656 201.585938 136.078125 202.695312 127.761719 205.425781 C 126.859375 205.722656 116.703125 209.46875 117.039062 210.523438 C 120.53125 221.410156 126.4375 231.222656 134.132812 239.316406 C 133.683594 238.84375 136.851562 234.070312 137.226562 233.527344 C 138.59375 231.539062 140.285156 229.683594 142.195312 228.210938 C 147.910156 223.792969 155.832031 222.667969 162.40625 219.910156 C 166.011719 218.398438 169.5625 216.753906 173.054688 214.992188 C 174.894531 214.066406 176.71875 213.105469 178.523438 212.113281 C 179.703125 211.464844 182.875 208.808594 184.128906 208.886719 C 182.652344 208.796875 181.175781 208.617188 179.710938 208.347656 Z M 179.710938 208.347656 " fill-opacity="1" fill-rule="nonzero"/>
  <path fill="none" d="M 233.546875 126.917969 C 233.53125 126.902344 233.519531 126.902344 233.503906 126.890625 C 224.148438 120.023438 213.234375 115.246094 201.335938 113.269531 C 199.933594 116.074219 198.832031 118.492188 198.601562 119.050781 C 196.640625 123.820312 195.492188 129.039062 195.773438 134.207031 C 196.082031 139.878906 197.914062 145.417969 198.734375 151.054688 C 199.558594 156.699219 199.714844 162.445312 198.929688 168.101562 C 201.972656 169.121094 204.667969 171.160156 206.328125 174.105469 C 208.800781 178.492188 209.996094 183.332031 209.738281 188.042969 C 215.449219 181.152344 219.027344 173.644531 218.742188 165.8125 C 217.839844 141.0625 221.074219 131.710938 233.546875 126.917969 Z M 233.546875 126.917969 " fill-opacity="1" fill-rule="nonzero"/>
  <path fill="#eb8f25" d="M 186.078125 179.710938 C 183.753906 180.484375 181.902344 182.28125 181.03125 184.566406 L 113.761719 180.570312 C 116.210938 153.570312 132.933594 130.6875 156.316406 119.523438 Z M 186.078125 179.710938 " fill-opacity="1" fill-rule="nonzero"/>
  <path fill="#000000" d="M 181.566406 185.394531 L 112.894531 181.316406 L 112.96875 180.5 C 115.375 153.957031 131.855469 130.316406 155.972656 118.804688 L 156.683594 118.46875 L 187.199219 180.179688 L 186.332031 180.46875 C 184.230469 181.167969 182.570312 182.765625 181.773438 184.851562 Z M 114.632812 179.824219 L 180.515625 183.738281 C 181.425781 181.75 183.007812 180.175781 184.980469 179.289062 L 155.953125 120.582031 C 132.96875 131.855469 117.222656 154.433594 114.632812 179.824219 Z M 114.632812 179.824219 " fill-opacity="1" fill-rule="nonzero"/>
  <path fill="#eb8f25" d="M 264.765625 189.515625 L 264.765625 189.628906 C 263.175781 217.921875 247.191406 242.304688 223.484375 254.488281 C 223.457031 254.503906 223.273438 254.515625 223.246094 254.53125 L 223.152344 254.488281 L 193.351562 194.316406 C 195.535156 192.835938 196.96875 190.332031 196.96875 187.484375 C 196.96875 186.792969 196.875 186.128906 196.710938 185.492188 L 264.273438 189.503906 Z M 264.765625 189.515625 " fill-opacity="1" fill-rule="nonzero"/>
  <g clip-path="url(#1d003c02de)">
    <path fill="#000000" d="M 223.128906 255.449219 L 222.820312 255.210938 L 222.566406 255.09375 L 192.332031 194.046875 L 192.90625 193.65625 C 194.953125 192.269531 196.171875 189.964844 196.171875 187.484375 C 196.171875 186.886719 196.09375 186.285156 195.941406 185.691406 L 195.664062 184.632812 L 265.5625 188.742188 L 265.5625 189.515625 C 263.984375 217.675781 248.003906 242.78125 223.847656 255.195312 L 223.726562 255.257812 L 223.457031 255.300781 Z M 194.359375 194.558594 L 223.574219 253.546875 C 246.785156 241.398438 262.175781 217.257812 263.929688 190.28125 L 197.6875 186.347656 C 197.738281 186.726562 197.765625 187.105469 197.765625 187.484375 C 197.765625 190.257812 196.503906 192.855469 194.359375 194.558594 Z M 194.359375 194.558594 " fill-opacity="1" fill-rule="nonzero"/>
  </g>
  <path fill="#eb8f25" d="M 187.035156 170.488281 L 181.335938 112.566406 C 179.867188 112.707031 178.417969 112.886719 176.976562 113.121094 C 174.433594 113.523438 171.929688 114.050781 169.46875 114.695312 L 184.285156 171.121094 C 185.164062 170.835938 186.085938 170.628906 187.035156 170.488281 Z M 187.035156 170.488281 " fill-opacity="1" fill-rule="nonzero"/>
  <path fill="#000000" d="M 183.726562 172.136719 L 168.496094 114.128906 L 169.265625 113.925781 C 171.746094 113.273438 174.300781 112.738281 176.855469 112.335938 C 178.261719 112.105469 179.703125 111.921875 181.257812 111.777344 L 182.046875 111.699219 L 187.902344 171.164062 L 187.152344 171.273438 C 186.214844 171.417969 185.332031 171.621094 184.527344 171.878906 Z M 170.441406 115.269531 L 184.847656 170.125 C 185.273438 170.015625 185.714844 169.914062 186.171875 169.828125 L 180.621094 113.441406 C 179.398438 113.566406 178.242188 113.722656 177.105469 113.90625 C 174.863281 114.261719 172.628906 114.71875 170.441406 115.269531 Z M 170.441406 115.269531 " fill-opacity="1" fill-rule="nonzero"/>
  <path fill="#eb8f25" d="M 192.257812 201.476562 C 191.554688 201.617188 190.839844 201.695312 190.121094 201.730469 L 196.089844 262.414062 C 198.125 262.222656 200.128906 261.945312 202.121094 261.585938 C 204.015625 261.253906 205.882812 260.835938 207.722656 260.351562 Z M 192.257812 201.476562 " fill-opacity="1" fill-rule="nonzero"/>
  <path fill="#000000" d="M 195.378906 263.28125 L 189.246094 200.984375 L 190.078125 200.9375 C 190.824219 200.898438 191.484375 200.820312 192.105469 200.695312 L 192.839844 200.550781 L 208.695312 260.917969 L 207.925781 261.121094 C 206.027344 261.621094 204.121094 262.042969 202.257812 262.367188 C 200.25 262.730469 198.195312 263.011719 196.167969 263.207031 Z M 190.992188 202.464844 L 196.804688 261.542969 C 198.53125 261.359375 200.269531 261.109375 201.980469 260.800781 C 203.546875 260.527344 205.148438 260.183594 206.75 259.78125 L 191.675781 202.382812 C 191.453125 202.414062 191.226562 202.441406 190.992188 202.464844 Z M 190.992188 202.464844 " fill-opacity="1" fill-rule="nonzero"/>
  <path fill="#424242" d="M 188.71875 162.175781 C 174.738281 162.175781 163.398438 173.503906 163.398438 187.484375 C 163.398438 201.464844 174.738281 212.804688 188.71875 212.804688 C 202.703125 212.804688 214.042969 201.464844 214.042969 187.484375 C 214.042969 173.503906 202.703125 162.175781 188.71875 162.175781 Z M 188.71875 195.710938 C 184.171875 195.710938 180.492188 192.035156 180.492188 187.484375 C 180.492188 182.949219 184.171875 179.269531 188.71875 179.269531 C 193.253906 179.269531 196.949219 182.949219 196.949219 187.484375 C 196.949219 192.035156 193.257812 195.710938 188.71875 195.710938 Z M 188.71875 195.710938 " fill-opacity="1" fill-rule="nonzero"/>
  <path fill="#000000" d="M 188.71875 213.585938 C 174.328125 213.585938 162.617188 201.878906 162.617188 187.484375 C 162.617188 173.097656 174.328125 161.394531 188.71875 161.394531 C 203.113281 161.394531 214.820312 173.097656 214.820312 187.484375 C 214.820312 201.878906 203.113281 213.585938 188.71875 213.585938 Z M 188.71875 162.953125 C 175.1875 162.953125 164.179688 173.960938 164.179688 187.484375 C 164.179688 201.015625 175.1875 212.027344 188.71875 212.027344 C 202.253906 212.027344 213.261719 201.015625 213.261719 187.484375 C 213.261719 173.960938 202.253906 162.953125 188.71875 162.953125 Z M 188.71875 196.492188 C 183.753906 196.492188 179.710938 192.453125 179.710938 187.484375 C 179.710938 182.523438 183.753906 178.488281 188.71875 178.488281 C 193.6875 178.488281 197.730469 182.523438 197.730469 187.484375 C 197.730469 192.453125 193.6875 196.492188 188.71875 196.492188 Z M 188.71875 180.050781 C 184.613281 180.050781 181.273438 183.386719 181.273438 187.484375 C 181.273438 191.589844 184.613281 194.929688 188.71875 194.929688 C 192.828125 194.929688 196.167969 191.589844 196.167969 187.484375 C 196.167969 183.386719 192.828125 180.050781 188.71875 180.050781 Z M 188.71875 180.050781 " fill-opacity="1" fill-rule="nonzero"/>
  <path fill="none" d="M 188.71875 175.535156 C 182.125 175.535156 176.769531 180.886719 176.769531 187.484375 C 176.769531 194.082031 182.125 199.433594 188.71875 199.433594 C 195.316406 199.433594 200.667969 194.082031 200.667969 187.484375 C 200.667969 180.886719 195.316406 175.535156 188.71875 175.535156 Z M 188.71875 195.710938 C 184.171875 195.710938 180.492188 192.035156 180.492188 187.484375 C 180.492188 182.949219 184.171875 179.269531 188.71875 179.269531 C 193.253906 179.269531 196.949219 182.949219 196.949219 187.484375 C 196.949219 192.035156 193.257812 195.710938 188.71875 195.710938 Z M 188.71875 195.710938 " fill-opacity="1" fill-rule="nonzero"/>
  <path fill="#000000" d="M 188.71875 200.214844 C 181.703125 200.214844 175.988281 194.503906 175.988281 187.484375 C 175.988281 180.464844 181.699219 174.753906 188.71875 174.753906 C 195.738281 174.753906 201.449219 180.464844 201.449219 187.484375 C 201.449219 194.503906 195.738281 200.214844 188.71875 200.214844 Z M 188.71875 176.316406 C 182.5625 176.316406 177.550781 181.328125 177.550781 187.484375 C 177.550781 193.644531 182.5625 198.652344 188.71875 198.652344 C 194.878906 198.652344 199.886719 193.644531 199.886719 187.484375 C 199.886719 181.328125 194.878906 176.316406 188.71875 176.316406 Z M 188.71875 196.492188 C 183.753906 196.492188 179.710938 192.453125 179.710938 187.484375 C 179.710938 182.523438 183.753906 178.488281 188.71875 178.488281 C 193.6875 178.488281 197.730469 182.523438 197.730469 187.484375 C 197.730469 192.453125 193.6875 196.492188 188.71875 196.492188 Z M 188.71875 180.050781 C 184.613281 180.050781 181.273438 183.386719 181.273438 187.484375 C 181.273438 191.589844 184.613281 194.929688 188.71875 194.929688 C 192.828125 194.929688 196.167969 191.589844 196.167969 187.484375 C 196.167969 183.386719 192.828125 180.050781 188.71875 180.050781 Z M 188.71875 180.050781 " fill-opacity="1" fill-rule="nonzero"/>
  <path fill="none" d="M 146.046875 235.34375 C 146.046875 235.34375 146.234375 235.523438 146.554688 235.859375 C 146.710938 236.027344 146.898438 236.230469 147.117188 236.46875 C 147.335938 236.734375 147.5625 236.824219 147.789062 237.0625 C 148.019531 237.273438 148.269531 237.503906 148.535156 237.742188 C 148.855469 238.003906 149.207031 238.261719 149.539062 238.566406 C 149.859375 238.871094 150.238281 239.160156 150.617188 239.460938 C 151 239.757812 151.375 240.074219 151.773438 240.367188 C 152.582031 240.949219 153.328125 241.621094 154.101562 242.160156 C 154.867188 242.710938 155.542969 243.300781 156.15625 243.753906 C 156.765625 244.214844 157.25 244.636719 157.605469 244.914062 C 157.953125 245.199219 158.144531 245.382812 158.144531 245.382812 L 158.664062 245.878906 C 159.671875 246.832031 159.710938 248.425781 158.753906 249.433594 C 157.964844 250.265625 156.742188 250.4375 155.773438 249.9375 C 155.773438 249.9375 154.78125 249.425781 153.347656 248.59375 C 150.75 247.082031 136.71875 238.902344 141.9375 234.835938 C 143.082031 233.941406 144.683594 234.046875 145.703125 235.015625 Z M 146.046875 235.34375 " fill-opacity="1" fill-rule="nonzero"/>
  <path fill="#000000" d="M 156.929688 251.011719 C 156.402344 251.011719 155.878906 250.886719 155.410156 250.644531 C 155.410156 250.644531 154.402344 250.125 152.949219 249.28125 C 147.1875 245.933594 140.261719 241.125 139.996094 237.214844 C 139.917969 236.050781 140.417969 235.007812 141.449219 234.207031 C 142.855469 233.109375 144.972656 233.21875 146.253906 234.441406 L 146.597656 234.769531 C 146.597656 234.769531 146.796875 234.957031 147.132812 235.3125 L 147.703125 235.929688 C 147.792969 236.039062 147.863281 236.089844 147.96875 236.171875 C 148.097656 236.269531 148.230469 236.371094 148.363281 236.511719 L 149.367188 237.386719 C 149.601562 237.574219 149.84375 237.761719 150.074219 237.976562 C 150.375 238.257812 150.707031 238.519531 151.046875 238.785156 L 151.515625 239.15625 C 151.753906 239.347656 151.992188 239.539062 152.242188 239.722656 C 152.628906 240 153.003906 240.300781 153.375 240.597656 C 153.769531 240.914062 154.160156 241.230469 154.558594 241.507812 C 155.007812 241.832031 155.417969 242.160156 155.804688 242.46875 C 156.09375 242.699219 156.367188 242.917969 156.628906 243.113281 C 157.03125 243.417969 157.371094 243.699219 157.664062 243.9375 L 158.097656 244.289062 C 158.375 244.515625 158.566406 244.671875 158.695312 244.808594 L 158.695312 244.804688 L 159.214844 245.300781 C 159.855469 245.910156 160.222656 246.734375 160.242188 247.617188 C 160.265625 248.5 159.941406 249.34375 159.332031 249.984375 C 158.707031 250.636719 157.832031 251.011719 156.929688 251.011719 Z M 143.710938 235.019531 C 143.242188 235.019531 142.796875 235.171875 142.425781 235.460938 C 141.808594 235.945312 141.542969 236.46875 141.585938 237.109375 C 141.753906 239.574219 146.1875 243.511719 153.75 247.902344 C 155.15625 248.722656 156.132812 249.226562 156.140625 249.230469 C 156.800781 249.570312 157.660156 249.429688 158.175781 248.886719 C 158.492188 248.554688 158.664062 248.117188 158.652344 247.65625 C 158.640625 247.195312 158.449219 246.769531 158.117188 246.453125 L 157.570312 245.933594 C 157.511719 245.878906 157.347656 245.734375 157.101562 245.53125 L 156.652344 245.167969 C 156.375 244.941406 156.046875 244.671875 155.675781 244.386719 C 155.40625 244.1875 155.113281 243.953125 154.808594 243.710938 C 154.441406 243.417969 154.054688 243.105469 153.636719 242.804688 C 153.222656 242.515625 152.800781 242.179688 152.375 241.839844 C 152.027344 241.558594 151.675781 241.277344 151.308594 241.011719 C 151.035156 240.8125 150.777344 240.605469 150.519531 240.398438 L 150.128906 240.085938 C 149.6875 239.742188 149.316406 239.449219 148.992188 239.144531 C 148.796875 238.96875 148.585938 238.800781 148.382812 238.640625 L 147.292969 237.691406 C 147.144531 237.542969 147.074219 237.492188 147.003906 237.441406 C 146.863281 237.332031 146.683594 237.195312 146.5 236.976562 L 145.96875 236.398438 C 145.683594 236.097656 145.503906 235.925781 145.496094 235.917969 L 145.15625 235.59375 C 144.765625 235.222656 144.253906 235.019531 143.710938 235.019531 Z M 143.710938 235.019531 " fill-opacity="1" fill-rule="nonzero"/>
  <path fill="none" d="M 238.785156 148.699219 C 238.785156 148.699219 238.625 148.488281 238.367188 148.113281 C 238.238281 147.917969 238.085938 147.6875 237.90625 147.417969 C 237.730469 147.121094 237.523438 146.996094 237.335938 146.722656 C 237.140625 146.476562 236.933594 146.214844 236.707031 145.933594 C 236.433594 145.625 236.128906 145.316406 235.847656 144.964844 C 235.578125 144.609375 235.253906 144.261719 234.925781 143.90625 C 234.59375 143.550781 234.277344 143.179688 233.925781 142.832031 C 233.222656 142.125 232.59375 141.34375 231.914062 140.6875 C 231.246094 140.023438 230.671875 139.332031 230.140625 138.789062 C 229.613281 138.234375 229.199219 137.742188 228.894531 137.414062 C 228.59375 137.074219 228.433594 136.863281 228.433594 136.863281 L 228 136.292969 C 227.15625 135.1875 227.371094 133.605469 228.480469 132.765625 C 229.386719 132.070312 230.621094 132.097656 231.5 132.742188 C 231.5 132.742188 232.398438 133.40625 233.679688 134.457031 C 236.003906 136.359375 248.558594 146.667969 242.757812 149.855469 C 241.488281 150.554688 239.921875 150.195312 239.070312 149.074219 Z M 238.785156 148.699219 " fill-opacity="1" fill-rule="nonzero"/>
  <path fill="#000000" d="M 241.371094 151.011719 C 240.222656 151.011719 239.125 150.46875 238.433594 149.554688 L 238.152344 149.183594 C 238.152344 149.183594 237.984375 148.960938 237.707031 148.5625 L 237.242188 147.859375 C 237.171875 147.738281 237.117188 147.679688 237.019531 147.578125 C 236.90625 147.457031 236.792969 147.335938 236.683594 147.175781 L 235.835938 146.15625 C 235.632812 145.9375 235.421875 145.707031 235.226562 145.460938 C 234.972656 145.132812 234.6875 144.824219 234.390625 144.503906 L 233.996094 144.074219 C 233.792969 143.84375 233.585938 143.617188 233.363281 143.394531 C 233.023438 143.054688 232.703125 142.699219 232.386719 142.347656 C 232.046875 141.972656 231.710938 141.601562 231.359375 141.261719 C 230.96875 140.871094 230.617188 140.480469 230.285156 140.113281 C 230.035156 139.839844 229.800781 139.578125 229.570312 139.34375 C 229.230469 138.988281 228.941406 138.660156 228.695312 138.382812 L 228.308594 137.953125 C 228.070312 137.683594 227.789062 137.351562 227.722656 137.21875 L 227.367188 136.777344 C 226.828125 136.074219 226.601562 135.199219 226.71875 134.324219 C 226.839844 133.449219 227.292969 132.671875 227.996094 132.132812 C 229.136719 131.261719 230.820312 131.253906 231.96875 132.101562 C 231.972656 132.101562 232.882812 132.777344 234.183594 133.839844 C 239.339844 138.0625 245.414062 143.914062 245.054688 147.8125 C 244.949219 148.976562 244.285156 149.925781 243.144531 150.554688 C 242.601562 150.851562 241.988281 151.011719 241.371094 151.011719 Z M 230 133.046875 C 229.621094 133.046875 229.261719 133.167969 228.960938 133.398438 C 228.59375 133.679688 228.359375 134.082031 228.296875 134.539062 C 228.234375 134.992188 228.355469 135.445312 228.632812 135.808594 L 229.066406 136.378906 C 229.09375 136.414062 229.238281 136.597656 229.492188 136.882812 L 229.886719 137.328125 C 230.121094 137.59375 230.398438 137.902344 230.714844 138.238281 C 230.949219 138.476562 231.199219 138.753906 231.464844 139.046875 C 231.777344 139.394531 232.113281 139.761719 232.472656 140.125 C 232.839844 140.480469 233.203125 140.875 233.566406 141.28125 C 233.867188 141.613281 234.171875 141.949219 234.488281 142.269531 C 234.726562 142.507812 234.953125 142.757812 235.179688 143.003906 L 235.507812 143.363281 C 235.890625 143.777344 236.210938 144.125 236.480469 144.476562 C 236.640625 144.683594 236.828125 144.882812 237.003906 145.074219 L 237.960938 146.226562 C 238.050781 146.351562 238.109375 146.414062 238.171875 146.476562 C 238.296875 146.605469 238.449219 146.769531 238.59375 147.015625 L 239.03125 147.671875 C 239.261719 148.011719 239.414062 148.210938 239.417969 148.21875 L 239.703125 148.589844 C 240.304688 149.382812 241.492188 149.644531 242.375 149.15625 C 243.0625 148.777344 243.410156 148.304688 243.46875 147.664062 C 243.695312 145.203125 239.945312 140.613281 233.175781 135.070312 C 231.917969 134.039062 231.035156 133.386719 231.023438 133.382812 C 230.734375 133.167969 230.367188 133.046875 230 133.046875 Z M 230 133.046875 " fill-opacity="1" fill-rule="nonzero"/>
  <g clip-path="url(#f5ddc470ae)">
    <path stroke-linecap="butt" transform="matrix(0.312254, 0, 0, 0.312254, 109.435668, 110.700571)" fill="none" stroke-linejoin="miter" d="M 497.447775 252.769816 L 497.447775 252.3695 C 497.447775 250.205295 497.447775 247.490656 497.447775 245.326451 C 497.447775 114.173123 390.788744 8.102056 260.398517 4.924552 C 258.40945 4.874513 256.157676 4.836983 254.168609 4.836983 C 246.187321 4.836983 238.181013 5.224789 230.387373 5.98789 C 225.696177 6.425735 220.979961 7.001188 216.363824 7.75178 C 208.219908 9.040295 200.176071 10.729125 192.294862 12.793251 " stroke="#000000" stroke-width="1.113" stroke-opacity="1" stroke-miterlimit="10"/>
  </g>
  <path fill="#000000" d="M 188.734375 263.492188 C 146.828125 263.492188 112.734375 229.398438 112.734375 187.496094 C 112.734375 145.589844 146.828125 111.5 188.734375 111.5 C 230.636719 111.5 264.730469 145.589844 264.730469 187.496094 C 264.730469 229.398438 230.636719 263.492188 188.734375 263.492188 Z M 188.734375 112.929688 C 147.617188 112.929688 114.164062 146.378906 114.164062 187.496094 C 114.164062 228.609375 147.617188 262.0625 188.734375 262.0625 C 229.847656 262.0625 263.296875 228.609375 263.296875 187.496094 C 263.296875 146.378906 229.847656 112.929688 188.734375 112.929688 Z M 188.734375 112.929688 " fill-opacity="1" fill-rule="nonzero"/>
</svg>
