<svg width="26" height="26" viewBox="0 0 26 26" fill="none" xmlns="http://www.w3.org/2000/svg">
<path d="M8.66699 1.62496V2.70829H3.25033C2.65202 2.70829 2.16699 3.19332 2.16699 3.79163V4.87496C2.16699 5.47326 2.65202 5.95829 3.25033 5.95829H22.7503C23.3486 5.95829 23.8337 5.47326 23.8337 4.87496V3.79163C23.8337 3.19332 23.3486 2.70829 22.7503 2.70829H17.3337V1.62496C17.3337 1.02665 16.8486 0.541626 16.2503 0.541626H9.75033C9.15202 0.541626 8.66699 1.02665 8.66699 1.62496Z" fill="#DB0000"/>
<path d="M4.25 8.125H21.7497L20.7289 21.9067C20.6031 23.6039 19.1896 24.9167 17.4878 24.9167H8.51199C6.8102 24.9167 5.39658 23.6039 5.27087 21.9067L4.25 8.125Z" fill="#DB0000"/>
</svg>
